<mxfile host="app.diagrams.net" modified="2022-01-14T03:12:45.004Z" agent="5.0 (Windows NT 10.0; Win64; x64) AppleWebKit/537.36 (KHTML, like Gecko) Chrome/97.0.4692.71 Safari/537.36" etag="ugunCvXW7rRgnkAtMWb0" version="16.2.6" type="github">
  <diagram id="1mm83CLafe0UnoxrH38e" name="Page-1">
    <mxGraphModel dx="-45" dy="513" grid="1" gridSize="10" guides="1" tooltips="1" connect="1" arrows="1" fold="1" page="1" pageScale="1" pageWidth="827" pageHeight="1169" math="0" shadow="0">
      <root>
        <mxCell id="0" />
        <mxCell id="1" parent="0" />
        <mxCell id="ovIjH7kmM88PJybYhvLl-30" value="" style="verticalLabelPosition=bottom;verticalAlign=top;html=1;shape=mxgraph.basic.rect;fillColor2=none;strokeWidth=1;size=20;indent=5;fillColor=#dae8fc;strokeColor=none;" vertex="1" parent="1">
          <mxGeometry x="1270" y="140" width="540" height="390" as="geometry" />
        </mxCell>
        <mxCell id="ovIjH7kmM88PJybYhvLl-9" value="" style="verticalLabelPosition=bottom;verticalAlign=top;html=1;shape=mxgraph.basic.rect;fillColor2=none;strokeWidth=1;size=20;indent=5;fillColor=#ffe6cc;strokeColor=none;" vertex="1" parent="1">
          <mxGeometry x="870" y="20" width="380" height="240" as="geometry" />
        </mxCell>
        <mxCell id="ovIjH7kmM88PJybYhvLl-1" value="«interface»&lt;br&gt;&lt;b&gt;Servlet&lt;/b&gt;" style="html=1;fillColor=#f5f5f5;fontColor=#333333;strokeColor=#666666;" vertex="1" parent="1">
          <mxGeometry x="880" y="40" width="160" height="40" as="geometry" />
        </mxCell>
        <mxCell id="ovIjH7kmM88PJybYhvLl-2" value="«interface»&lt;br&gt;&lt;b&gt;ServletConfig&lt;/b&gt;" style="html=1;fillColor=#f5f5f5;fontColor=#333333;strokeColor=#666666;" vertex="1" parent="1">
          <mxGeometry x="1080" y="40" width="160" height="40" as="geometry" />
        </mxCell>
        <mxCell id="ovIjH7kmM88PJybYhvLl-3" value="GenericServlet" style="html=1;fillColor=#f5f5f5;fontColor=#333333;strokeColor=#666666;" vertex="1" parent="1">
          <mxGeometry x="980" y="130" width="160" height="40" as="geometry" />
        </mxCell>
        <mxCell id="ovIjH7kmM88PJybYhvLl-4" value="" style="endArrow=block;dashed=1;endFill=0;endSize=12;html=1;rounded=0;exitX=0.25;exitY=0;exitDx=0;exitDy=0;" edge="1" parent="1" source="ovIjH7kmM88PJybYhvLl-3" target="ovIjH7kmM88PJybYhvLl-1">
          <mxGeometry width="160" relative="1" as="geometry">
            <mxPoint x="890" y="220" as="sourcePoint" />
            <mxPoint x="1050" y="220" as="targetPoint" />
            <Array as="points">
              <mxPoint x="1020" y="110" />
              <mxPoint x="990" y="110" />
              <mxPoint x="960" y="110" />
            </Array>
          </mxGeometry>
        </mxCell>
        <mxCell id="ovIjH7kmM88PJybYhvLl-5" value="" style="endArrow=block;dashed=1;endFill=0;endSize=12;html=1;rounded=0;entryX=0.5;entryY=1;entryDx=0;entryDy=0;exitX=0.75;exitY=0;exitDx=0;exitDy=0;" edge="1" parent="1" source="ovIjH7kmM88PJybYhvLl-3" target="ovIjH7kmM88PJybYhvLl-2">
          <mxGeometry width="160" relative="1" as="geometry">
            <mxPoint x="1080" y="130" as="sourcePoint" />
            <mxPoint x="1240" y="130" as="targetPoint" />
            <Array as="points">
              <mxPoint x="1100" y="110" />
              <mxPoint x="1160" y="110" />
            </Array>
          </mxGeometry>
        </mxCell>
        <mxCell id="ovIjH7kmM88PJybYhvLl-7" style="edgeStyle=orthogonalEdgeStyle;rounded=0;orthogonalLoop=1;jettySize=auto;html=1;exitX=0.5;exitY=0;exitDx=0;exitDy=0;entryX=0.5;entryY=1;entryDx=0;entryDy=0;" edge="1" parent="1" source="ovIjH7kmM88PJybYhvLl-6" target="ovIjH7kmM88PJybYhvLl-3">
          <mxGeometry relative="1" as="geometry" />
        </mxCell>
        <mxCell id="ovIjH7kmM88PJybYhvLl-6" value="HttpServlet" style="html=1;fillColor=#f5f5f5;fontColor=#333333;strokeColor=#666666;" vertex="1" parent="1">
          <mxGeometry x="980" y="200" width="160" height="40" as="geometry" />
        </mxCell>
        <mxCell id="ovIjH7kmM88PJybYhvLl-10" value="«interface»&lt;br&gt;&lt;b&gt;Aware&lt;/b&gt;" style="html=1;fillColor=#f5f5f5;fontColor=#333333;strokeColor=#666666;" vertex="1" parent="1">
          <mxGeometry x="1440" y="160" width="160" height="40" as="geometry" />
        </mxCell>
        <mxCell id="ovIjH7kmM88PJybYhvLl-11" value="«interface»&lt;br&gt;&lt;b&gt;EnviromentCapable&lt;/b&gt;" style="html=1;fillColor=#f5f5f5;fontColor=#333333;strokeColor=#666666;" vertex="1" parent="1">
          <mxGeometry x="1280" y="240" width="120" height="40" as="geometry" />
        </mxCell>
        <mxCell id="ovIjH7kmM88PJybYhvLl-14" style="edgeStyle=orthogonalEdgeStyle;rounded=0;orthogonalLoop=1;jettySize=auto;html=1;exitX=0.5;exitY=0;exitDx=0;exitDy=0;entryX=0.5;entryY=1;entryDx=0;entryDy=0;" edge="1" parent="1" source="ovIjH7kmM88PJybYhvLl-12" target="ovIjH7kmM88PJybYhvLl-10">
          <mxGeometry relative="1" as="geometry" />
        </mxCell>
        <mxCell id="ovIjH7kmM88PJybYhvLl-12" value="«interface»&lt;br&gt;&lt;b&gt;EnviromentAware&lt;/b&gt;" style="html=1;fillColor=#f5f5f5;fontColor=#333333;strokeColor=#666666;" vertex="1" parent="1">
          <mxGeometry x="1460" y="240" width="120" height="40" as="geometry" />
        </mxCell>
        <mxCell id="ovIjH7kmM88PJybYhvLl-17" style="edgeStyle=orthogonalEdgeStyle;rounded=0;orthogonalLoop=1;jettySize=auto;html=1;exitX=0.5;exitY=0;exitDx=0;exitDy=0;entryX=0.75;entryY=1;entryDx=0;entryDy=0;" edge="1" parent="1" source="ovIjH7kmM88PJybYhvLl-13" target="ovIjH7kmM88PJybYhvLl-10">
          <mxGeometry relative="1" as="geometry" />
        </mxCell>
        <mxCell id="ovIjH7kmM88PJybYhvLl-13" value="«interface»&lt;br&gt;&lt;b&gt;ApplicationContextAware&lt;/b&gt;" style="html=1;fillColor=#f5f5f5;fontColor=#333333;strokeColor=#666666;" vertex="1" parent="1">
          <mxGeometry x="1640" y="240" width="160" height="40" as="geometry" />
        </mxCell>
        <mxCell id="ovIjH7kmM88PJybYhvLl-20" style="edgeStyle=orthogonalEdgeStyle;rounded=0;orthogonalLoop=1;jettySize=auto;html=1;exitX=0.25;exitY=0;exitDx=0;exitDy=0;entryX=0.5;entryY=1;entryDx=0;entryDy=0;" edge="1" parent="1" source="ovIjH7kmM88PJybYhvLl-18" target="ovIjH7kmM88PJybYhvLl-6">
          <mxGeometry relative="1" as="geometry">
            <Array as="points">
              <mxPoint x="1320" y="300" />
              <mxPoint x="1060" y="300" />
            </Array>
          </mxGeometry>
        </mxCell>
        <mxCell id="ovIjH7kmM88PJybYhvLl-24" style="edgeStyle=orthogonalEdgeStyle;rounded=0;orthogonalLoop=1;jettySize=auto;html=1;exitX=0.75;exitY=0;exitDx=0;exitDy=0;entryX=0.5;entryY=1;entryDx=0;entryDy=0;" edge="1" parent="1" source="ovIjH7kmM88PJybYhvLl-18" target="ovIjH7kmM88PJybYhvLl-12">
          <mxGeometry relative="1" as="geometry" />
        </mxCell>
        <mxCell id="ovIjH7kmM88PJybYhvLl-18" value="HttpServletBean" style="html=1;fillColor=#f5f5f5;fontColor=#333333;strokeColor=#666666;" vertex="1" parent="1">
          <mxGeometry x="1280" y="320" width="160" height="40" as="geometry" />
        </mxCell>
        <mxCell id="ovIjH7kmM88PJybYhvLl-21" value="" style="endArrow=block;dashed=1;endFill=0;endSize=12;html=1;rounded=0;exitX=0.5;exitY=0;exitDx=0;exitDy=0;" edge="1" parent="1" source="ovIjH7kmM88PJybYhvLl-18">
          <mxGeometry width="160" relative="1" as="geometry">
            <mxPoint x="1350" y="320" as="sourcePoint" />
            <mxPoint x="1360" y="280" as="targetPoint" />
          </mxGeometry>
        </mxCell>
        <mxCell id="ovIjH7kmM88PJybYhvLl-27" style="edgeStyle=orthogonalEdgeStyle;rounded=0;orthogonalLoop=1;jettySize=auto;html=1;exitX=0.25;exitY=0;exitDx=0;exitDy=0;entryX=0.5;entryY=1;entryDx=0;entryDy=0;" edge="1" parent="1" source="ovIjH7kmM88PJybYhvLl-25" target="ovIjH7kmM88PJybYhvLl-18">
          <mxGeometry relative="1" as="geometry">
            <mxPoint x="1360" y="380" as="targetPoint" />
          </mxGeometry>
        </mxCell>
        <mxCell id="ovIjH7kmM88PJybYhvLl-25" value="FrameworkServlet" style="html=1;fillColor=#f5f5f5;fontColor=#333333;strokeColor=#666666;" vertex="1" parent="1">
          <mxGeometry x="1440" y="400" width="160" height="40" as="geometry" />
        </mxCell>
        <mxCell id="ovIjH7kmM88PJybYhvLl-26" value="" style="endArrow=block;dashed=1;endFill=0;endSize=12;html=1;rounded=0;exitX=0.581;exitY=-0.033;exitDx=0;exitDy=0;entryX=0.5;entryY=1;entryDx=0;entryDy=0;exitPerimeter=0;" edge="1" parent="1" source="ovIjH7kmM88PJybYhvLl-25" target="ovIjH7kmM88PJybYhvLl-13">
          <mxGeometry width="160" relative="1" as="geometry">
            <mxPoint x="1570" y="310" as="sourcePoint" />
            <mxPoint x="1730" y="310" as="targetPoint" />
            <Array as="points">
              <mxPoint x="1533" y="380" />
              <mxPoint x="1720" y="380" />
            </Array>
          </mxGeometry>
        </mxCell>
        <mxCell id="ovIjH7kmM88PJybYhvLl-29" style="edgeStyle=orthogonalEdgeStyle;rounded=0;orthogonalLoop=1;jettySize=auto;html=1;exitX=0.5;exitY=0;exitDx=0;exitDy=0;entryX=0.5;entryY=1;entryDx=0;entryDy=0;" edge="1" parent="1" source="ovIjH7kmM88PJybYhvLl-28" target="ovIjH7kmM88PJybYhvLl-25">
          <mxGeometry relative="1" as="geometry" />
        </mxCell>
        <mxCell id="ovIjH7kmM88PJybYhvLl-28" value="DispatchServlet" style="html=1;fillColor=#f5f5f5;fontColor=#333333;strokeColor=#666666;" vertex="1" parent="1">
          <mxGeometry x="1440" y="480" width="160" height="40" as="geometry" />
        </mxCell>
        <mxCell id="ovIjH7kmM88PJybYhvLl-31" value="&lt;b&gt;&lt;i&gt;JAVA&lt;/i&gt;&lt;/b&gt;" style="text;html=1;strokeColor=none;fillColor=#ffe6cc;align=center;verticalAlign=middle;whiteSpace=wrap;rounded=0;" vertex="1" parent="1">
          <mxGeometry x="1250" y="20" width="60" height="30" as="geometry" />
        </mxCell>
        <mxCell id="ovIjH7kmM88PJybYhvLl-32" value="&lt;b&gt;&lt;i&gt;Spring&lt;/i&gt;&lt;/b&gt;" style="text;html=1;strokeColor=none;fillColor=#dae8fc;align=center;verticalAlign=middle;whiteSpace=wrap;rounded=0;" vertex="1" parent="1">
          <mxGeometry x="1750" y="110" width="60" height="30" as="geometry" />
        </mxCell>
        <mxCell id="ovIjH7kmM88PJybYhvLl-33" value="&lt;b&gt;&lt;i&gt;Spring MVC 核心Servlet结构图&lt;/i&gt;&lt;/b&gt;" style="text;html=1;align=center;verticalAlign=middle;whiteSpace=wrap;rounded=0;" vertex="1" parent="1">
          <mxGeometry x="1250" y="70" width="440" height="30" as="geometry" />
        </mxCell>
      </root>
    </mxGraphModel>
  </diagram>
</mxfile>
